<mxfile host="app.diagrams.net" modified="2024-03-31T21:35:45.760Z" agent="Mozilla/5.0 (Windows NT 10.0; Win64; x64) AppleWebKit/537.36 (KHTML, like Gecko) Chrome/123.0.0.0 Safari/537.36" etag="20xB8daVLkNS6y2-skvF" version="24.0.7" type="device">
  <diagram name="Sayfa -1" id="2B7JQT0y66lPOabhw5fz">
    <mxGraphModel dx="1887" dy="839" grid="1" gridSize="10" guides="1" tooltips="1" connect="1" arrows="1" fold="1" page="1" pageScale="1" pageWidth="827" pageHeight="1169" math="0" shadow="0">
      <root>
        <mxCell id="0" />
        <mxCell id="1" parent="0" />
        <mxCell id="b2lE7iJxdCI-wAZpoDAB-2" value="Veri aktarımı" style="rounded=0;whiteSpace=wrap;html=1;" vertex="1" parent="1">
          <mxGeometry x="350" y="30" width="120" height="60" as="geometry" />
        </mxCell>
        <mxCell id="b2lE7iJxdCI-wAZpoDAB-6" value="" style="edgeStyle=orthogonalEdgeStyle;rounded=0;orthogonalLoop=1;jettySize=auto;html=1;" edge="1" parent="1" source="b2lE7iJxdCI-wAZpoDAB-5" target="b2lE7iJxdCI-wAZpoDAB-2">
          <mxGeometry relative="1" as="geometry" />
        </mxCell>
        <mxCell id="b2lE7iJxdCI-wAZpoDAB-5" value="Ekran" style="rounded=0;whiteSpace=wrap;html=1;" vertex="1" parent="1">
          <mxGeometry x="350" y="130" width="120" height="60" as="geometry" />
        </mxCell>
        <mxCell id="b2lE7iJxdCI-wAZpoDAB-9" value="" style="edgeStyle=orthogonalEdgeStyle;rounded=0;orthogonalLoop=1;jettySize=auto;html=1;" edge="1" parent="1" source="b2lE7iJxdCI-wAZpoDAB-8" target="b2lE7iJxdCI-wAZpoDAB-5">
          <mxGeometry relative="1" as="geometry" />
        </mxCell>
        <mxCell id="b2lE7iJxdCI-wAZpoDAB-10" style="edgeStyle=orthogonalEdgeStyle;rounded=0;orthogonalLoop=1;jettySize=auto;html=1;entryX=1;entryY=0.5;entryDx=0;entryDy=0;exitX=0;exitY=0.5;exitDx=0;exitDy=0;" edge="1" parent="1" source="b2lE7iJxdCI-wAZpoDAB-8" target="b2lE7iJxdCI-wAZpoDAB-12">
          <mxGeometry relative="1" as="geometry">
            <mxPoint x="150" y="330" as="targetPoint" />
            <mxPoint x="260" y="260" as="sourcePoint" />
            <Array as="points" />
          </mxGeometry>
        </mxCell>
        <mxCell id="b2lE7iJxdCI-wAZpoDAB-11" style="edgeStyle=orthogonalEdgeStyle;rounded=0;orthogonalLoop=1;jettySize=auto;html=1;exitX=1;exitY=0.5;exitDx=0;exitDy=0;" edge="1" parent="1" source="b2lE7iJxdCI-wAZpoDAB-13">
          <mxGeometry relative="1" as="geometry">
            <mxPoint x="620" y="260" as="targetPoint" />
            <mxPoint x="509.5" y="200" as="sourcePoint" />
            <Array as="points">
              <mxPoint x="610" y="260" />
              <mxPoint x="610" y="260" />
            </Array>
          </mxGeometry>
        </mxCell>
        <mxCell id="b2lE7iJxdCI-wAZpoDAB-53" style="edgeStyle=orthogonalEdgeStyle;rounded=0;orthogonalLoop=1;jettySize=auto;html=1;entryX=0.5;entryY=0;entryDx=0;entryDy=0;" edge="1" parent="1" target="b2lE7iJxdCI-wAZpoDAB-28">
          <mxGeometry relative="1" as="geometry">
            <mxPoint x="619.9399999999999" y="316.64" as="targetPoint" />
            <mxPoint x="411.38" y="280" as="sourcePoint" />
            <Array as="points">
              <mxPoint x="410" y="280" />
              <mxPoint x="410" y="310" />
              <mxPoint x="570" y="310" />
            </Array>
          </mxGeometry>
        </mxCell>
        <mxCell id="b2lE7iJxdCI-wAZpoDAB-56" value="" style="edgeStyle=orthogonalEdgeStyle;rounded=0;orthogonalLoop=1;jettySize=auto;html=1;" edge="1" parent="1" source="b2lE7iJxdCI-wAZpoDAB-8" target="b2lE7iJxdCI-wAZpoDAB-55">
          <mxGeometry relative="1" as="geometry" />
        </mxCell>
        <mxCell id="b2lE7iJxdCI-wAZpoDAB-8" value="Pencereler" style="rounded=0;whiteSpace=wrap;html=1;" vertex="1" parent="1">
          <mxGeometry x="350" y="230" width="120" height="60" as="geometry" />
        </mxCell>
        <mxCell id="b2lE7iJxdCI-wAZpoDAB-72" style="edgeStyle=orthogonalEdgeStyle;rounded=0;orthogonalLoop=1;jettySize=auto;html=1;entryX=0.5;entryY=1;entryDx=0;entryDy=0;" edge="1" parent="1" source="b2lE7iJxdCI-wAZpoDAB-12" target="b2lE7iJxdCI-wAZpoDAB-15">
          <mxGeometry relative="1" as="geometry" />
        </mxCell>
        <mxCell id="b2lE7iJxdCI-wAZpoDAB-12" value="data" style="rounded=0;whiteSpace=wrap;html=1;" vertex="1" parent="1">
          <mxGeometry x="70" y="230" width="120" height="60" as="geometry" />
        </mxCell>
        <mxCell id="b2lE7iJxdCI-wAZpoDAB-34" style="edgeStyle=orthogonalEdgeStyle;rounded=0;orthogonalLoop=1;jettySize=auto;html=1;entryX=1;entryY=0.5;entryDx=0;entryDy=0;" edge="1" parent="1" source="b2lE7iJxdCI-wAZpoDAB-13" target="b2lE7iJxdCI-wAZpoDAB-5">
          <mxGeometry relative="1" as="geometry">
            <Array as="points">
              <mxPoint x="580" y="160" />
            </Array>
          </mxGeometry>
        </mxCell>
        <mxCell id="b2lE7iJxdCI-wAZpoDAB-15" value="2bit array" style="rounded=0;whiteSpace=wrap;html=1;" vertex="1" parent="1">
          <mxGeometry x="70" y="90" width="120" height="60" as="geometry" />
        </mxCell>
        <mxCell id="b2lE7iJxdCI-wAZpoDAB-36" value="" style="edgeStyle=orthogonalEdgeStyle;rounded=0;orthogonalLoop=1;jettySize=auto;html=1;" edge="1" parent="1" source="b2lE7iJxdCI-wAZpoDAB-25" target="b2lE7iJxdCI-wAZpoDAB-35">
          <mxGeometry relative="1" as="geometry" />
        </mxCell>
        <mxCell id="b2lE7iJxdCI-wAZpoDAB-25" value="Harf çizim fonksiyonları" style="rounded=0;whiteSpace=wrap;html=1;" vertex="1" parent="1">
          <mxGeometry x="640" y="626" width="120" height="60" as="geometry" />
        </mxCell>
        <mxCell id="b2lE7iJxdCI-wAZpoDAB-26" value="Şekil çizim fonksiyonları" style="rounded=0;whiteSpace=wrap;html=1;" vertex="1" parent="1">
          <mxGeometry x="640" y="525" width="120" height="60" as="geometry" />
        </mxCell>
        <mxCell id="b2lE7iJxdCI-wAZpoDAB-27" value="Basit şekiller" style="rounded=0;whiteSpace=wrap;html=1;" vertex="1" parent="1">
          <mxGeometry x="640" y="425" width="120" height="60" as="geometry" />
        </mxCell>
        <mxCell id="b2lE7iJxdCI-wAZpoDAB-31" value="" style="edgeStyle=orthogonalEdgeStyle;rounded=0;orthogonalLoop=1;jettySize=auto;html=1;entryX=0;entryY=0.5;entryDx=0;entryDy=0;exitX=0.5;exitY=1;exitDx=0;exitDy=0;" edge="1" parent="1" source="b2lE7iJxdCI-wAZpoDAB-28" target="b2lE7iJxdCI-wAZpoDAB-25">
          <mxGeometry relative="1" as="geometry">
            <mxPoint x="600" y="400" as="sourcePoint" />
            <mxPoint x="664" y="725.0000000000001" as="targetPoint" />
            <Array as="points">
              <mxPoint x="570" y="656" />
            </Array>
          </mxGeometry>
        </mxCell>
        <mxCell id="b2lE7iJxdCI-wAZpoDAB-28" value="Çizim classı" style="rounded=0;whiteSpace=wrap;html=1;" vertex="1" parent="1">
          <mxGeometry x="510" y="330" width="120" height="60" as="geometry" />
        </mxCell>
        <mxCell id="b2lE7iJxdCI-wAZpoDAB-32" value="" style="endArrow=classic;html=1;rounded=0;" edge="1" parent="1">
          <mxGeometry width="50" height="50" relative="1" as="geometry">
            <mxPoint x="570" y="555" as="sourcePoint" />
            <mxPoint x="640" y="554.86" as="targetPoint" />
          </mxGeometry>
        </mxCell>
        <mxCell id="b2lE7iJxdCI-wAZpoDAB-33" value="" style="endArrow=classic;html=1;rounded=0;entryX=0;entryY=0.5;entryDx=0;entryDy=0;" edge="1" parent="1" target="b2lE7iJxdCI-wAZpoDAB-27">
          <mxGeometry width="50" height="50" relative="1" as="geometry">
            <mxPoint x="570" y="455" as="sourcePoint" />
            <mxPoint x="650" y="435" as="targetPoint" />
          </mxGeometry>
        </mxCell>
        <mxCell id="b2lE7iJxdCI-wAZpoDAB-40" value="" style="edgeStyle=orthogonalEdgeStyle;rounded=0;orthogonalLoop=1;jettySize=auto;html=1;" edge="1" parent="1" source="b2lE7iJxdCI-wAZpoDAB-35" target="b2lE7iJxdCI-wAZpoDAB-39">
          <mxGeometry relative="1" as="geometry" />
        </mxCell>
        <mxCell id="b2lE7iJxdCI-wAZpoDAB-35" value="Fontlar" style="rounded=0;whiteSpace=wrap;html=1;" vertex="1" parent="1">
          <mxGeometry x="820" y="626" width="120" height="60" as="geometry" />
        </mxCell>
        <mxCell id="b2lE7iJxdCI-wAZpoDAB-39" value="Font class" style="rounded=0;whiteSpace=wrap;html=1;" vertex="1" parent="1">
          <mxGeometry x="820" y="525" width="120" height="60" as="geometry" />
        </mxCell>
        <mxCell id="b2lE7iJxdCI-wAZpoDAB-49" value="" style="edgeStyle=orthogonalEdgeStyle;rounded=0;orthogonalLoop=1;jettySize=auto;html=1;" edge="1" parent="1" source="b2lE7iJxdCI-wAZpoDAB-42" target="b2lE7iJxdCI-wAZpoDAB-48">
          <mxGeometry relative="1" as="geometry">
            <Array as="points">
              <mxPoint x="250" y="540" />
              <mxPoint x="250" y="540" />
            </Array>
          </mxGeometry>
        </mxCell>
        <mxCell id="b2lE7iJxdCI-wAZpoDAB-42" value="Input girişi" style="whiteSpace=wrap;html=1;" vertex="1" parent="1">
          <mxGeometry x="190" y="330" width="120" height="60" as="geometry" />
        </mxCell>
        <mxCell id="b2lE7iJxdCI-wAZpoDAB-43" value="" style="endArrow=classic;html=1;rounded=0;entryX=0.5;entryY=0;entryDx=0;entryDy=0;" edge="1" parent="1" target="b2lE7iJxdCI-wAZpoDAB-42">
          <mxGeometry width="50" height="50" relative="1" as="geometry">
            <mxPoint x="410" y="310" as="sourcePoint" />
            <mxPoint x="330" y="330" as="targetPoint" />
            <Array as="points">
              <mxPoint x="250" y="310" />
            </Array>
          </mxGeometry>
        </mxCell>
        <mxCell id="b2lE7iJxdCI-wAZpoDAB-48" value="Seri monitörden girdi" style="whiteSpace=wrap;html=1;" vertex="1" parent="1">
          <mxGeometry x="70" y="520" width="120" height="60" as="geometry" />
        </mxCell>
        <mxCell id="b2lE7iJxdCI-wAZpoDAB-51" value="El yapımı konsol" style="rounded=0;whiteSpace=wrap;html=1;" vertex="1" parent="1">
          <mxGeometry x="70" y="425" width="120" height="60" as="geometry" />
        </mxCell>
        <mxCell id="b2lE7iJxdCI-wAZpoDAB-60" style="edgeStyle=orthogonalEdgeStyle;rounded=0;orthogonalLoop=1;jettySize=auto;html=1;" edge="1" parent="1" source="b2lE7iJxdCI-wAZpoDAB-55">
          <mxGeometry relative="1" as="geometry">
            <mxPoint x="410" y="430" as="targetPoint" />
          </mxGeometry>
        </mxCell>
        <mxCell id="b2lE7iJxdCI-wAZpoDAB-55" value="Çıktı" style="rounded=0;whiteSpace=wrap;html=1;" vertex="1" parent="1">
          <mxGeometry x="350" y="330" width="120" height="60" as="geometry" />
        </mxCell>
        <mxCell id="b2lE7iJxdCI-wAZpoDAB-57" style="edgeStyle=orthogonalEdgeStyle;rounded=0;orthogonalLoop=1;jettySize=auto;html=1;exitX=0.5;exitY=1;exitDx=0;exitDy=0;" edge="1" parent="1" source="b2lE7iJxdCI-wAZpoDAB-51" target="b2lE7iJxdCI-wAZpoDAB-51">
          <mxGeometry relative="1" as="geometry" />
        </mxCell>
        <mxCell id="b2lE7iJxdCI-wAZpoDAB-59" value="" style="endArrow=classic;html=1;rounded=0;entryX=1;entryY=0.5;entryDx=0;entryDy=0;" edge="1" parent="1" target="b2lE7iJxdCI-wAZpoDAB-51">
          <mxGeometry width="50" height="50" relative="1" as="geometry">
            <mxPoint x="250" y="455" as="sourcePoint" />
            <mxPoint x="250" y="430" as="targetPoint" />
          </mxGeometry>
        </mxCell>
        <mxCell id="b2lE7iJxdCI-wAZpoDAB-63" value="" style="edgeStyle=orthogonalEdgeStyle;rounded=0;orthogonalLoop=1;jettySize=auto;html=1;" edge="1" parent="1" source="b2lE7iJxdCI-wAZpoDAB-61" target="b2lE7iJxdCI-wAZpoDAB-62">
          <mxGeometry relative="1" as="geometry" />
        </mxCell>
        <mxCell id="b2lE7iJxdCI-wAZpoDAB-61" value="Buzzer ile ses" style="rounded=0;whiteSpace=wrap;html=1;" vertex="1" parent="1">
          <mxGeometry x="350" y="430" width="120" height="60" as="geometry" />
        </mxCell>
        <mxCell id="b2lE7iJxdCI-wAZpoDAB-62" value="Seslerin daha iyi kodlanması?" style="rounded=0;whiteSpace=wrap;html=1;" vertex="1" parent="1">
          <mxGeometry x="350" y="525" width="120" height="60" as="geometry" />
        </mxCell>
        <mxCell id="b2lE7iJxdCI-wAZpoDAB-71" value="" style="edgeStyle=orthogonalEdgeStyle;rounded=0;orthogonalLoop=1;jettySize=auto;html=1;exitX=1;exitY=0.5;exitDx=0;exitDy=0;" edge="1" parent="1" source="b2lE7iJxdCI-wAZpoDAB-8" target="b2lE7iJxdCI-wAZpoDAB-13">
          <mxGeometry relative="1" as="geometry">
            <mxPoint x="620" y="260" as="targetPoint" />
            <mxPoint x="470" y="260" as="sourcePoint" />
            <Array as="points" />
          </mxGeometry>
        </mxCell>
        <mxCell id="b2lE7iJxdCI-wAZpoDAB-13" value="konum(x,y,z)" style="rounded=0;whiteSpace=wrap;html=1;" vertex="1" parent="1">
          <mxGeometry x="530" y="230" width="120" height="60" as="geometry" />
        </mxCell>
        <mxCell id="b2lE7iJxdCI-wAZpoDAB-75" style="edgeStyle=orthogonalEdgeStyle;rounded=0;orthogonalLoop=1;jettySize=auto;html=1;entryX=0.006;entryY=0.193;entryDx=0;entryDy=0;entryPerimeter=0;" edge="1" parent="1" source="b2lE7iJxdCI-wAZpoDAB-73" target="b2lE7iJxdCI-wAZpoDAB-8">
          <mxGeometry relative="1" as="geometry">
            <mxPoint x="320" y="240" as="targetPoint" />
            <Array as="points">
              <mxPoint x="270" y="242" />
              <mxPoint x="320" y="242" />
            </Array>
          </mxGeometry>
        </mxCell>
        <mxCell id="b2lE7iJxdCI-wAZpoDAB-73" value="Oyun içi gelişmeler" style="rounded=0;whiteSpace=wrap;html=1;" vertex="1" parent="1">
          <mxGeometry x="210" y="160" width="120" height="60" as="geometry" />
        </mxCell>
      </root>
    </mxGraphModel>
  </diagram>
</mxfile>
